<svg width="447" height="447" viewBox="0 0 447 447" fill="none" xmlns="http://www.w3.org/2000/svg">
<rect width="447" height="447" rx="7" fill="#EC6058"/>
<mask id="mask0_142_1357" style="mask-type:alpha" maskUnits="userSpaceOnUse" x="0" y="0" width="447" height="447">
<rect width="447" height="447" rx="7" fill="#D9D9D9"/>
</mask>
<g mask="url(#mask0_142_1357)">
<line x1="-3.47487" y1="454.525" x2="463.525" y2="-12.4748" stroke="#F99F9A" stroke-width="7"/>
<line x1="463.525" y1="459.475" x2="-3.47483" y2="-7.52508" stroke="#F99F9A" stroke-width="7"/>
<mask id="path-5-outside-1_142_1357" maskUnits="userSpaceOnUse" x="99.5" y="182.5" width="248" height="83" fill="black">
<rect fill="white" x="99.5" y="182.5" width="248" height="83"/>
<path d="M144.964 223.49C146.998 223.924 148.632 224.941 149.866 226.542C151.1 228.109 151.717 229.91 151.717 231.945C151.717 234.88 150.683 237.214 148.616 238.949C146.581 240.65 143.73 241.5 140.061 241.5H123.702V206.381H139.511C143.079 206.381 145.864 207.198 147.865 208.832C149.9 210.466 150.917 212.684 150.917 215.486C150.917 217.554 150.367 219.271 149.266 220.639C148.199 222.006 146.765 222.957 144.964 223.49ZM132.257 220.589H137.86C139.261 220.589 140.328 220.288 141.062 219.688C141.829 219.054 142.212 218.137 142.212 216.937C142.212 215.736 141.829 214.819 141.062 214.185C140.328 213.551 139.261 213.235 137.86 213.235H132.257V220.589ZM138.56 234.596C139.994 234.596 141.095 234.279 141.862 233.646C142.662 232.979 143.063 232.028 143.063 230.794C143.063 229.56 142.646 228.593 141.812 227.893C141.012 227.192 139.894 226.842 138.46 226.842H132.257V234.596H138.56ZM178.541 235.297H165.434L163.333 241.5H154.378L167.085 206.381H176.99L189.697 241.5H180.642L178.541 235.297ZM176.34 228.693L171.987 215.836L167.685 228.693H176.34ZM224.982 241.5H216.427L202.119 219.838V241.5H193.564V206.381H202.119L216.427 228.143V206.381H224.982V241.5ZM262.6 241.5H254.045L239.737 219.838V241.5H231.183V206.381H239.737L254.045 228.143V206.381H262.6V241.5ZM277.355 213.235V220.338H288.812V226.942H277.355V234.646H290.313V241.5H268.801V206.381H290.313V213.235H277.355ZM313.776 241.5L306.472 228.243H304.421V241.5H295.866V206.381H310.224C312.992 206.381 315.344 206.864 317.278 207.832C319.246 208.799 320.713 210.133 321.68 211.834C322.648 213.501 323.131 215.369 323.131 217.437C323.131 219.771 322.464 221.856 321.13 223.69C319.829 225.525 317.895 226.825 315.327 227.592L323.431 241.5H313.776ZM304.421 222.189H309.724C311.291 222.189 312.459 221.806 313.226 221.039C314.026 220.272 314.426 219.188 314.426 217.787C314.426 216.453 314.026 215.402 313.226 214.635C312.459 213.868 311.291 213.485 309.724 213.485H304.421V222.189Z"/>
</mask>
<path d="M144.964 223.49C146.998 223.924 148.632 224.941 149.866 226.542C151.1 228.109 151.717 229.91 151.717 231.945C151.717 234.88 150.683 237.214 148.616 238.949C146.581 240.65 143.73 241.5 140.061 241.5H123.702V206.381H139.511C143.079 206.381 145.864 207.198 147.865 208.832C149.9 210.466 150.917 212.684 150.917 215.486C150.917 217.554 150.367 219.271 149.266 220.639C148.199 222.006 146.765 222.957 144.964 223.49ZM132.257 220.589H137.86C139.261 220.589 140.328 220.288 141.062 219.688C141.829 219.054 142.212 218.137 142.212 216.937C142.212 215.736 141.829 214.819 141.062 214.185C140.328 213.551 139.261 213.235 137.86 213.235H132.257V220.589ZM138.56 234.596C139.994 234.596 141.095 234.279 141.862 233.646C142.662 232.979 143.063 232.028 143.063 230.794C143.063 229.56 142.646 228.593 141.812 227.893C141.012 227.192 139.894 226.842 138.46 226.842H132.257V234.596H138.56ZM178.541 235.297H165.434L163.333 241.5H154.378L167.085 206.381H176.99L189.697 241.5H180.642L178.541 235.297ZM176.34 228.693L171.987 215.836L167.685 228.693H176.34ZM224.982 241.5H216.427L202.119 219.838V241.5H193.564V206.381H202.119L216.427 228.143V206.381H224.982V241.5ZM262.6 241.5H254.045L239.737 219.838V241.5H231.183V206.381H239.737L254.045 228.143V206.381H262.6V241.5ZM277.355 213.235V220.338H288.812V226.942H277.355V234.646H290.313V241.5H268.801V206.381H290.313V213.235H277.355ZM313.776 241.5L306.472 228.243H304.421V241.5H295.866V206.381H310.224C312.992 206.381 315.344 206.864 317.278 207.832C319.246 208.799 320.713 210.133 321.68 211.834C322.648 213.501 323.131 215.369 323.131 217.437C323.131 219.771 322.464 221.856 321.13 223.69C319.829 225.525 317.895 226.825 315.327 227.592L323.431 241.5H313.776ZM304.421 222.189H309.724C311.291 222.189 312.459 221.806 313.226 221.039C314.026 220.272 314.426 219.188 314.426 217.787C314.426 216.453 314.026 215.402 313.226 214.635C312.459 213.868 311.291 213.485 309.724 213.485H304.421V222.189Z" fill="#F99F9A"/>
<path d="M144.964 223.49L138.37 201.235C128.191 204.251 121.356 213.788 121.77 224.396C122.184 235.004 129.743 243.979 140.126 246.192L144.964 223.49ZM149.866 226.542L131.483 240.713C131.531 240.775 131.58 240.837 131.628 240.899L149.866 226.542ZM148.616 238.949L163.504 256.756C163.513 256.748 163.522 256.741 163.532 256.733L148.616 238.949ZM123.702 241.5H100.491C100.491 254.319 110.883 264.711 123.702 264.711V241.5ZM123.702 206.381V183.17C110.883 183.17 100.491 193.562 100.491 206.381H123.702ZM147.865 208.832L133.183 226.81C133.232 226.85 133.28 226.889 133.329 226.928L147.865 208.832ZM149.266 220.639L131.184 206.085C131.112 206.175 131.04 206.266 130.968 206.357L149.266 220.639ZM132.257 220.589H109.045C109.045 233.408 119.438 243.8 132.257 243.8V220.589ZM141.062 219.688L155.76 237.653C155.788 237.63 155.816 237.606 155.844 237.583L141.062 219.688ZM141.062 214.185L125.89 231.752C126.019 231.863 126.148 231.972 126.279 232.08L141.062 214.185ZM132.257 213.235V190.023C119.438 190.023 109.045 200.415 109.045 213.235H132.257ZM141.862 233.646L156.645 251.541C156.67 251.52 156.696 251.498 156.721 251.477L141.862 233.646ZM141.812 227.893L126.527 245.361C126.645 245.464 126.763 245.565 126.883 245.666L141.812 227.893ZM132.257 226.842V203.631C119.438 203.631 109.045 214.023 109.045 226.842H132.257ZM132.257 234.596H109.045C109.045 247.415 119.438 257.808 132.257 257.808V234.596ZM144.964 223.49L140.126 246.192C138.725 245.893 137.093 245.307 135.449 244.284C133.797 243.255 132.473 241.996 131.483 240.713L149.866 226.542L168.25 212.371C163.55 206.274 157.049 202.333 149.802 200.789L144.964 223.49ZM149.866 226.542L131.628 240.899C130.708 239.73 129.874 238.279 129.296 236.591C128.72 234.909 128.506 233.311 128.506 231.945H151.717H174.929C174.929 224.814 172.628 217.931 168.104 212.184L149.866 226.542ZM151.717 231.945H128.506C128.506 230.656 128.743 228.701 129.719 226.498C130.718 224.241 132.177 222.441 133.7 221.164L148.616 238.949L163.532 256.733C171.358 250.168 174.929 241.061 174.929 231.945H151.717ZM148.616 238.949L133.727 221.141C137.223 218.219 140.36 218.289 140.061 218.289V241.5V264.711C147.099 264.711 155.94 263.08 163.504 256.756L148.616 238.949ZM140.061 241.5V218.289H123.702V241.5V264.711H140.061V241.5ZM123.702 241.5H146.913V206.381H123.702H100.491V241.5H123.702ZM123.702 206.381V229.592H139.511V206.381V183.17H123.702V206.381ZM139.511 206.381V229.592C139.75 229.592 136.661 229.65 133.183 226.81L147.865 208.832L162.547 190.854C155.068 184.746 146.408 183.17 139.511 183.17V206.381ZM147.865 208.832L133.329 226.928C131.735 225.647 130.154 223.792 129.056 221.398C127.98 219.052 127.706 216.932 127.706 215.486H150.917H174.128C174.128 206.243 170.367 197.135 162.401 190.736L147.865 208.832ZM150.917 215.486H127.706C127.706 213.243 128.397 209.548 131.184 206.085L149.266 220.639L167.348 235.192C172.336 228.995 174.128 221.864 174.128 215.486H150.917ZM149.266 220.639L130.968 206.357C133.126 203.593 135.939 201.955 138.37 201.235L144.964 223.49L151.558 245.745C157.59 243.958 163.271 240.419 167.564 234.92L149.266 220.639ZM132.257 220.589V243.8H137.86V220.589V197.377H132.257V220.589ZM137.86 220.589V243.8C142.146 243.8 149.301 242.937 155.76 237.653L141.062 219.688L126.363 201.724C131.354 197.64 136.375 197.377 137.86 197.377V220.589ZM141.062 219.688L155.844 237.583C163.057 231.625 165.423 223.482 165.423 216.937H142.212H119.001C119.001 215.086 119.297 212.472 120.51 209.57C121.772 206.552 123.762 203.872 126.279 201.793L141.062 219.688ZM142.212 216.937H165.423C165.423 210.391 163.057 202.249 155.844 196.29L141.062 214.185L126.279 232.08C123.762 230.001 121.772 227.322 120.51 224.303C119.297 221.401 119.001 218.787 119.001 216.937H142.212ZM141.062 214.185L156.233 196.618C149.749 191.018 142.398 190.023 137.86 190.023V213.235V236.446C136.123 236.446 130.907 236.085 125.89 231.752L141.062 214.185ZM137.86 213.235V190.023H132.257V213.235V236.446H137.86V213.235ZM132.257 213.235H109.045V220.589H132.257H155.468V213.235H132.257ZM138.56 234.596V257.808C143.064 257.808 150.221 256.847 156.645 251.541L141.862 233.646L127.079 215.751C131.968 211.712 136.925 211.385 138.56 211.385V234.596ZM141.862 233.646L156.721 251.477C163.807 245.572 166.274 237.51 166.274 230.794H143.063H119.851C119.851 228.913 120.158 226.303 121.37 223.425C122.626 220.443 124.581 217.832 127.003 215.814L141.862 233.646ZM143.063 230.794H166.274C166.274 223.728 163.562 215.849 156.741 210.12L141.812 227.893L126.883 245.666C124.628 243.772 122.706 241.282 121.435 238.331C120.196 235.458 119.851 232.801 119.851 230.794H143.063ZM141.812 227.893L157.097 210.424C150.783 204.9 143.54 203.631 138.46 203.631V226.842V250.053C136.248 250.053 131.24 249.485 126.527 245.361L141.812 227.893ZM138.46 226.842V203.631H132.257V226.842V250.053H138.46V226.842ZM132.257 226.842H109.045V234.596H132.257H155.468V226.842H132.257ZM132.257 234.596V257.808H138.56V234.596V211.385H132.257V234.596ZM178.541 235.297L200.525 227.85C197.334 218.427 188.491 212.085 178.541 212.085V235.297ZM165.434 235.297V212.085C155.484 212.085 146.641 218.427 143.449 227.85L165.434 235.297ZM163.333 241.5V264.711C173.282 264.711 182.125 258.37 185.317 248.946L163.333 241.5ZM154.378 241.5L132.551 233.603C129.977 240.717 131.032 248.639 135.377 254.831C139.722 261.024 146.813 264.711 154.378 264.711V241.5ZM167.085 206.381V183.17C157.311 183.17 148.584 189.293 145.258 198.484L167.085 206.381ZM176.99 206.381L198.817 198.484C195.491 189.293 186.764 183.17 176.99 183.17V206.381ZM189.697 241.5V264.711C197.262 264.711 204.353 261.024 208.698 254.831C213.043 248.639 214.098 240.717 211.524 233.603L189.697 241.5ZM180.642 241.5L158.658 248.946C161.85 258.37 170.693 264.711 180.642 264.711V241.5ZM176.34 228.693V251.904C183.82 251.904 190.842 248.299 195.201 242.221C199.561 236.143 200.724 228.336 198.325 221.25L176.34 228.693ZM171.987 215.836L193.973 208.393C190.778 198.954 181.913 192.607 171.947 192.625C161.981 192.642 153.138 199.019 149.976 208.47L171.987 215.836ZM167.685 228.693L145.673 221.327C143.304 228.407 144.485 236.195 148.847 242.254C153.209 248.313 160.219 251.904 167.685 251.904V228.693ZM178.541 235.297V212.085H165.434V235.297V258.508H178.541V235.297ZM165.434 235.297L143.449 227.85L141.348 234.054L163.333 241.5L185.317 248.946L187.418 242.743L165.434 235.297ZM163.333 241.5V218.289H154.378V241.5V264.711H163.333V241.5ZM154.378 241.5L176.204 249.397L188.911 214.278L167.085 206.381L145.258 198.484L132.551 233.603L154.378 241.5ZM167.085 206.381V229.592H176.99V206.381V183.17H167.085V206.381ZM176.99 206.381L155.164 214.278L167.871 249.397L189.697 241.5L211.524 233.603L198.817 198.484L176.99 206.381ZM189.697 241.5V218.289H180.642V241.5V264.711H189.697V241.5ZM180.642 241.5L202.627 234.054L200.525 227.85L178.541 235.297L156.557 242.743L158.658 248.946L180.642 241.5ZM176.34 228.693L198.325 221.25L193.973 208.393L171.987 215.836L150.002 223.279L154.354 236.136L176.34 228.693ZM171.987 215.836L149.976 208.47L145.673 221.327L167.685 228.693L189.697 236.059L193.999 223.202L171.987 215.836ZM167.685 228.693V251.904H176.34V228.693V205.482H167.685V228.693ZM224.982 241.5V264.711C237.801 264.711 248.193 254.319 248.193 241.5H224.982ZM216.427 241.5L197.059 254.293C201.356 260.798 208.631 264.711 216.427 264.711V241.5ZM202.119 219.838L221.487 207.046C215.84 198.496 205.254 194.66 195.44 197.609C185.627 200.557 178.908 209.591 178.908 219.838H202.119ZM202.119 241.5V264.711C214.938 264.711 225.33 254.319 225.33 241.5H202.119ZM193.564 241.5H170.353C170.353 254.319 180.745 264.711 193.564 264.711V241.5ZM193.564 206.381V183.17C180.745 183.17 170.353 193.562 170.353 206.381H193.564ZM202.119 206.381L221.514 193.629C217.222 187.101 209.932 183.17 202.119 183.17V206.381ZM216.427 228.143L197.032 240.894C202.666 249.464 213.257 253.32 223.082 250.379C232.907 247.439 239.638 238.399 239.638 228.143H216.427ZM216.427 206.381V183.17C203.608 183.17 193.216 193.562 193.216 206.381H216.427ZM224.982 206.381H248.193C248.193 193.562 237.801 183.17 224.982 183.17V206.381ZM224.982 241.5V218.289H216.427V241.5V264.711H224.982V241.5ZM216.427 241.5L235.795 228.707L221.487 207.046L202.119 219.838L182.751 232.631L197.059 254.293L216.427 241.5ZM202.119 219.838H178.908V241.5H202.119H225.33V219.838H202.119ZM202.119 241.5V218.289H193.564V241.5V264.711H202.119V241.5ZM193.564 241.5H216.776V206.381H193.564H170.353V241.5H193.564ZM193.564 206.381V229.592H202.119V206.381V183.17H193.564V206.381ZM202.119 206.381L182.724 219.132L197.032 240.894L216.427 228.143L235.822 215.391L221.514 193.629L202.119 206.381ZM216.427 228.143H239.638V206.381H216.427H193.216V228.143H216.427ZM216.427 206.381V229.592H224.982V206.381V183.17H216.427V206.381ZM224.982 206.381H201.77V241.5H224.982H248.193V206.381H224.982ZM262.6 241.5V264.711C275.419 264.711 285.811 254.319 285.811 241.5H262.6ZM254.045 241.5L234.677 254.293C238.974 260.798 246.249 264.711 254.045 264.711V241.5ZM239.737 219.838L259.105 207.046C253.458 198.496 242.872 194.66 233.059 197.609C223.245 200.557 216.526 209.591 216.526 219.838H239.737ZM239.737 241.5V264.711C252.556 264.711 262.949 254.319 262.949 241.5H239.737ZM231.183 241.5H207.971C207.971 254.319 218.363 264.711 231.183 264.711V241.5ZM231.183 206.381V183.17C218.363 183.17 207.971 193.562 207.971 206.381H231.183ZM239.737 206.381L259.132 193.629C254.84 187.101 247.551 183.17 239.737 183.17V206.381ZM254.045 228.143L234.65 240.894C240.284 249.464 250.875 253.32 260.7 250.379C270.526 247.439 277.256 238.399 277.256 228.143H254.045ZM254.045 206.381V183.17C241.226 183.17 230.834 193.562 230.834 206.381H254.045ZM262.6 206.381H285.811C285.811 193.562 275.419 183.17 262.6 183.17V206.381ZM262.6 241.5V218.289H254.045V241.5V264.711H262.6V241.5ZM254.045 241.5L273.413 228.707L259.105 207.046L239.737 219.838L220.369 232.631L234.677 254.293L254.045 241.5ZM239.737 219.838H216.526V241.5H239.737H262.949V219.838H239.737ZM239.737 241.5V218.289H231.183V241.5V264.711H239.737V241.5ZM231.183 241.5H254.394V206.381H231.183H207.971V241.5H231.183ZM231.183 206.381V229.592H239.737V206.381V183.17H231.183V206.381ZM239.737 206.381L220.342 219.132L234.65 240.894L254.045 228.143L273.44 215.391L259.132 193.629L239.737 206.381ZM254.045 228.143H277.256V206.381H254.045H230.834V228.143H254.045ZM254.045 206.381V229.592H262.6V206.381V183.17H254.045V206.381ZM262.6 206.381H239.388V241.5H262.6H285.811V206.381H262.6ZM277.355 213.235V190.023C264.536 190.023 254.144 200.415 254.144 213.235H277.355ZM277.355 220.338H254.144C254.144 233.158 264.536 243.55 277.355 243.55V220.338ZM288.812 220.338H312.023C312.023 207.519 301.631 197.127 288.812 197.127V220.338ZM288.812 226.942V250.153C301.631 250.153 312.023 239.761 312.023 226.942H288.812ZM277.355 226.942V203.731C264.536 203.731 254.144 214.123 254.144 226.942H277.355ZM277.355 234.646H254.144C254.144 247.465 264.536 257.858 277.355 257.858V234.646ZM290.313 234.646H313.524C313.524 221.827 303.132 211.435 290.313 211.435V234.646ZM290.313 241.5V264.711C303.132 264.711 313.524 254.319 313.524 241.5H290.313ZM268.801 241.5H245.59C245.59 254.319 255.982 264.711 268.801 264.711V241.5ZM268.801 206.381V183.17C255.982 183.17 245.59 193.562 245.59 206.381H268.801ZM290.313 206.381H313.524C313.524 193.562 303.132 183.17 290.313 183.17V206.381ZM290.313 213.235V236.446C303.132 236.446 313.524 226.054 313.524 213.235H290.313ZM277.355 213.235H254.144V220.338H277.355H300.567V213.235H277.355ZM277.355 220.338V243.55H288.812V220.338V197.127H277.355V220.338ZM288.812 220.338H265.6V226.942H288.812H312.023V220.338H288.812ZM288.812 226.942V203.731H277.355V226.942V250.153H288.812V226.942ZM277.355 226.942H254.144V234.646H277.355H300.567V226.942H277.355ZM277.355 234.646V257.858H290.313V234.646V211.435H277.355V234.646ZM290.313 234.646H267.101V241.5H290.313H313.524V234.646H290.313ZM290.313 241.5V218.289H268.801V241.5V264.711H290.313V241.5ZM268.801 241.5H292.012V206.381H268.801H245.59V241.5H268.801ZM268.801 206.381V229.592H290.313V206.381V183.17H268.801V206.381ZM290.313 206.381H267.101V213.235H290.313H313.524V206.381H290.313ZM290.313 213.235V190.023H277.355V213.235V236.446H290.313V213.235ZM313.776 241.5L293.446 252.701C297.528 260.11 305.317 264.711 313.776 264.711V241.5ZM306.472 228.243L326.802 217.042C322.72 209.633 314.931 205.031 306.472 205.031V228.243ZM304.421 228.243V205.031C291.602 205.031 281.21 215.424 281.21 228.243H304.421ZM304.421 241.5V264.711C317.24 264.711 327.632 254.319 327.632 241.5H304.421ZM295.866 241.5H272.655C272.655 254.319 283.047 264.711 295.866 264.711V241.5ZM295.866 206.381V183.17C283.047 183.17 272.655 193.562 272.655 206.381H295.866ZM317.278 207.832L306.898 228.592C306.945 228.616 306.992 228.639 307.039 228.663L317.278 207.832ZM321.68 211.834L301.503 223.307C301.536 223.365 301.569 223.422 301.602 223.479L321.68 211.834ZM321.13 223.69L302.358 210.038C302.304 210.113 302.25 210.189 302.196 210.264L321.13 223.69ZM315.327 227.592L308.684 205.352C301.865 207.389 296.357 212.441 293.741 219.059C291.125 225.678 291.689 233.13 295.272 239.279L315.327 227.592ZM323.431 241.5V264.711C331.741 264.711 339.416 260.27 343.556 253.065C347.696 245.861 347.67 236.993 343.486 229.813L323.431 241.5ZM304.421 222.189H281.21C281.21 235.009 291.602 245.401 304.421 245.401V222.189ZM313.226 221.039L297.166 204.281C297.047 204.394 296.929 204.51 296.813 204.626L313.226 221.039ZM313.226 214.635L296.813 231.048C296.929 231.165 297.047 231.28 297.166 231.394L313.226 214.635ZM304.421 213.485V190.273C291.602 190.273 281.21 200.665 281.21 213.485H304.421ZM313.776 241.5L334.106 230.299L326.802 217.042L306.472 228.243L286.142 239.443L293.446 252.701L313.776 241.5ZM306.472 228.243V205.031H304.421V228.243V251.454H306.472V228.243ZM304.421 228.243H281.21V241.5H304.421H327.632V228.243H304.421ZM304.421 241.5V218.289H295.866V241.5V264.711H304.421V241.5ZM295.866 241.5H319.078V206.381H295.866H272.655V241.5H295.866ZM295.866 206.381V229.592H310.224V206.381V183.17H295.866V206.381ZM310.224 206.381V229.592C310.367 229.592 308.96 229.623 306.898 228.592L317.278 207.832L327.658 187.071C321.727 184.105 315.618 183.17 310.224 183.17V206.381ZM317.278 207.832L307.039 228.663C305.354 227.834 303.108 226.129 301.503 223.307L321.68 211.834L341.858 200.36C338.319 194.136 333.138 189.764 327.517 187.001L317.278 207.832ZM321.68 211.834L301.602 223.479C300.368 221.352 299.92 219.152 299.92 217.437H323.131H346.342C346.342 211.586 344.927 205.651 341.759 200.188L321.68 211.834ZM323.131 217.437H299.92C299.92 216.364 300.078 215.069 300.524 213.677C300.972 212.278 301.624 211.048 302.358 210.038L321.13 223.69L339.902 237.342C344.21 231.418 346.342 224.523 346.342 217.437H323.131ZM321.13 223.69L302.196 210.264C304.439 207.101 307.273 205.774 308.684 205.352L315.327 227.592L321.97 249.833C328.517 247.877 335.22 243.949 340.064 237.116L321.13 223.69ZM315.327 227.592L295.272 239.279L303.377 253.187L323.431 241.5L343.486 229.813L335.382 215.906L315.327 227.592ZM323.431 241.5V218.289H313.776V241.5V264.711H323.431V241.5ZM304.421 222.189V245.401H309.724V222.189V198.978H304.421V222.189ZM309.724 222.189V245.401C314.701 245.401 322.9 244.19 329.639 237.452L313.226 221.039L296.813 204.626C302.018 199.421 307.882 198.978 309.724 198.978V222.189ZM313.226 221.039L329.286 237.797C335.79 231.564 337.638 223.749 337.638 217.787H314.426H291.215C291.215 214.627 292.263 208.979 297.166 204.281L313.226 221.039ZM314.426 217.787H337.638C337.638 211.511 335.566 203.896 329.286 197.877L313.226 214.635L297.166 231.394C295.047 229.363 293.442 226.904 292.436 224.262C291.462 221.706 291.215 219.429 291.215 217.787H314.426ZM313.226 214.635L329.639 198.222C322.9 191.484 314.701 190.273 309.724 190.273V213.485V236.696C307.882 236.696 302.018 236.253 296.813 231.048L313.226 214.635ZM309.724 213.485V190.273H304.421V213.485V236.696H309.724V213.485ZM304.421 213.485H281.21V222.189H304.421H327.632V213.485H304.421Z" fill="#EC6058" mask="url(#path-5-outside-1_142_1357)"/>
</g>
</svg>
