<svg width="32" height="32" viewBox="0 0 32 32" fill="none" xmlns="http://www.w3.org/2000/svg">
<circle cx="16" cy="16" r="16" fill="#003E59"/>
<path d="M13.0031 16.9999C12.4519 16.9999 12.0025 17.449 12.0025 17.9718C12.0025 18.4946 12.4519 18.9437 13.0031 18.9437C13.5544 18.9437 14.0037 18.4946 14.0037 17.9718C14.0037 17.449 13.5563 16.9999 13.0031 16.9999ZM10.7081 18.2937C10.3172 17.9034 9.68406 17.9034 9.29344 18.2937C8.9025 18.6843 8.9025 19.3181 9.29344 19.7084L11.2922 21.7081C11.6831 22.0984 12.3162 22.0984 12.7069 21.7082C13.0978 21.3175 13.0978 20.6838 12.7069 20.2935L10.7081 18.2937ZM9.00063 21C8.44938 21 8 21.45 8 22C8 22.55 8.44938 23 9.00063 23C9.55187 23 10.0013 22.5509 10.0013 22.0281C10.0013 21.5053 9.55187 21 9.00063 21ZM16.9906 9.19701C13.525 8.27888 10.375 10.6823 10.0281 13.9127C9.94063 14.4968 10.4603 14.9718 11.0491 14.9718C11.5681 14.9718 11.9631 14.5633 12.0253 14.0483C12.242 12.2602 13.8131 10.8827 15.6784 10.9764C17.9194 11.0887 19.3378 13.3771 18.8816 15.5671C18.6768 16.4937 18.2128 17.3443 17.5259 18.0318L17 18.5843V18.9984C17 19.9797 16.2903 20.7978 15.3569 20.9665C14.8875 21.0531 14.5 21.4781 14.5 21.9562C14.5 22.5744 15.0588 23.0481 15.6681 22.945C17.4156 22.6499 18.7816 21.2175 18.9775 19.4387C20.2309 18.1674 20.9428 16.5027 20.9978 14.723C21.075 12.1999 19.4313 9.84358 16.9906 9.19701ZM15.5 13.2499C16.1894 13.2499 16.75 13.8105 16.75 14.4999C16.75 14.914 17.0859 15.2499 17.5 15.2499C17.9141 15.2499 18.25 14.914 18.25 14.4999C18.25 12.9833 17.0166 11.7499 15.5 11.7499C13.9834 11.7499 12.75 12.9842 12.75 14.4999C12.75 14.914 13.0859 15.2499 13.5 15.2499C13.9141 15.2499 14.25 14.9155 14.25 14.4999C14.25 13.8093 14.8094 13.2499 15.5 13.2499ZM20.4312 7.09746C19.9341 6.86014 19.3359 7.07109 19.0981 7.56902C18.8608 8.06809 19.0722 8.66466 19.5706 8.90217C21.0469 9.60639 22 11.2155 22 12.9999C22 13.5527 22.4478 13.9999 23 13.9999C23.5522 13.9999 24 13.553 24 12.9999C24 10.4467 22.6 8.13075 20.4312 7.09746Z" fill="white"/>
</svg>
